<?xml version="1.0" encoding="UTF-8"?>
<svg version="1.1" xmlns="http://www.w3.org/2000/svg" width="1080" height="1080">
<path d="M0 0 C356.4 0 712.8 0 1080 0 C1080 356.4 1080 712.8 1080 1080 C723.6 1080 367.2 1080 0 1080 C0 723.6 0 367.2 0 0 Z " fill="#121212" transform="translate(0,0)"/>
<path d="M0 0 C356.4 0 712.8 0 1080 0 C1080 356.4 1080 712.8 1080 1080 C723.6 1080 367.2 1080 0 1080 C0 723.6 0 367.2 0 0 Z M385 51 C384.14019531 51.26893066 383.28039062 51.53786133 382.39453125 51.81494141 C319.46261168 71.511283 261.54784047 104.95020754 211 147 C210.40477539 147.49467773 209.80955078 147.98935547 209.19628906 148.49902344 C196.37634683 159.20256695 184.27255871 170.66057842 172.4375 182.4375 C171.79506348 183.07526367 171.15262695 183.71302734 170.49072266 184.37011719 C166.68840367 188.18534559 163.08114553 192.12194841 159.56079102 196.19848633 C157.66843856 198.38269855 155.71073328 200.50215885 153.75 202.625 C148.66891304 208.25725571 144.04057957 214.20249936 139.40283203 220.19873047 C138.04118223 221.94712104 136.66309942 223.68083304 135.27734375 225.41015625 C78.671421 296.18030648 44.56923065 381.74617974 32 471 C31.77932861 472.55364258 31.77932861 472.55364258 31.55419922 474.13867188 C31.12661061 477.19494224 30.71596159 480.25295804 30.3125 483.3125 C30.19310059 484.18076416 30.07370117 485.04902832 29.95068359 485.94360352 C27.73836875 503.44842464 27.76378433 521.25755162 27.75 538.875 C27.74866058 539.90282593 27.74732117 540.93065186 27.74594116 541.98962402 C27.75350112 569.06469294 29.10281162 596.3264575 34 623 C34.20496094 624.1648291 34.40992188 625.3296582 34.62109375 626.52978516 C43.60995282 677.58726644 59.67273875 725.67224588 83 772 C83.78358887 773.56886963 83.78358887 773.56886963 84.58300781 775.16943359 C91.64874764 789.26683412 99.44780851 802.75385324 108 816 C108.44053711 816.68497559 108.88107422 817.36995117 109.33496094 818.07568359 C119.50752039 833.81893037 130.59866665 848.84610706 142.56884766 863.26464844 C143.83638163 864.80160365 145.08199207 866.35658166 146.32421875 867.9140625 C151.73707738 874.69764503 157.57800942 881.01047412 163.53515625 887.3125 C165.6362306 889.53682974 167.71251224 891.77632309 169.74609375 894.0625 C177.65732572 902.92500643 186.27273955 910.95191223 195 919 C196.04958618 919.97514525 197.09907754 920.95039257 198.1484375 921.92578125 C204.23926473 927.53667224 210.54637964 932.8134517 217 938 C218.12055374 938.92355532 219.24030882 939.84808028 220.359375 940.7734375 C229.41793065 948.21161296 238.87650564 954.89943033 248.62109375 961.40625 C250.90254265 962.93470838 253.17141517 964.48013311 255.4375 966.03125 C275.41355455 979.63890442 296.41309247 991.16194519 318 1002 C318.85658203 1002.43296387 319.71316406 1002.86592773 320.59570312 1003.31201172 C369.51178955 1027.88150418 423.44336137 1042.04630038 477.57568359 1048.58154297 C480.37238345 1048.92330424 483.16500488 1049.28266136 485.95703125 1049.66015625 C504.46664599 1052.12203687 523.11047582 1052.0925871 541.75 1052.125 C543.04043213 1052.12901825 543.04043213 1052.12901825 544.35693359 1052.13311768 C561.95490326 1052.17463815 579.34243702 1051.44717178 596.8125 1049.25 C597.50799957 1049.16352203 598.20349915 1049.07704407 598.92007446 1048.98794556 C629.92260275 1045.11585808 660.9513572 1039.90706784 690.60058594 1029.80664062 C693.23794706 1028.9200064 695.88691758 1028.07572005 698.5390625 1027.234375 C759.56394582 1007.68900268 816.91315715 976.18883069 866 935 C866.61359375 934.48550293 867.2271875 933.97100586 867.859375 933.44091797 C869.66110279 931.92456 871.45719664 930.40189597 873.25 928.875 C874.00845215 928.23002563 874.00845215 928.23002563 874.78222656 927.57202148 C884.94946741 918.82581793 894.59450101 909.57027216 904.05639648 900.07397461 C905.82487219 898.30008997 907.59870044 896.53168223 909.37304688 894.76367188 C915.12882874 889.01160948 920.75297641 883.22660869 926 877 C926.98414462 875.86975755 927.96979471 874.740824 928.95703125 873.61328125 C948.93968828 850.58102058 966.7429265 825.39815552 982 799 C982.35626465 798.38511719 982.7125293 797.77023437 983.07958984 797.13671875 C985.77926187 792.45680278 988.40622653 787.73933112 991 783 C991.63010986 781.85265381 991.63010986 781.85265381 992.27294922 780.68212891 C1004.4848286 758.3095312 1014.36697521 735.05990343 1022.90673828 711.06103516 C1023.90840977 708.25644446 1024.93222361 705.46127762 1025.96484375 702.66796875 C1030.15519929 691.20931635 1033.40638198 679.61280241 1036.31347656 667.76708984 C1036.9430222 665.22965377 1037.60263064 662.70255686 1038.2734375 660.17578125 C1045.13497913 633.73116096 1048.5377268 606.32049186 1050.73339844 579.13256836 C1050.89442467 577.24051007 1051.07434373 575.34974271 1051.29003906 573.46313477 C1052.30670244 564.38770772 1052.14993606 555.2721193 1052.13037109 546.15258789 C1052.12508157 543.23253006 1052.13030268 540.31263084 1052.13671875 537.39257812 C1052.14541416 518.66216838 1051.55421923 500.03566121 1049.25 481.4375 C1049.12128006 480.37154602 1049.12128006 480.37154602 1048.98995972 479.28405762 C1041.58702039 418.21972995 1023.52311477 360.91258163 996 306 C995.5477002 305.09282227 995.09540039 304.18564453 994.62939453 303.25097656 C981.67083892 277.41482469 965.75535184 252.79620218 948 230 C947.14444843 228.88808456 946.28898428 227.77610184 945.43359375 226.6640625 C936.01049536 214.48042306 925.9724871 202.86839637 915.47900391 191.59667969 C913.89665631 189.88843385 912.32888874 188.16748749 910.76171875 186.4453125 C902.26110012 177.15453324 893.29434424 168.49182569 884 160 C882.59041016 158.700625 882.59041016 158.700625 881.15234375 157.375 C875.28408254 152.01823541 869.18586042 146.98394454 863 142 C861.89007259 141.08660836 860.78072183 140.17251565 859.671875 139.2578125 C804.88050473 94.35848951 736.83375395 59.99677749 668 43 C667.28118652 42.81308594 666.56237305 42.62617187 665.82177734 42.43359375 C575.77715148 19.12656396 476.21829785 21.81838144 385 51 Z " fill="#000000" transform="translate(0,0)"/>
<path d="M0 0 C0.74314453 0.19851562 1.48628906 0.39703125 2.25195312 0.6015625 C8.22428619 2.22991215 14.11473386 4.08292735 20 6 C21.24942383 6.40605469 22.49884766 6.81210937 23.78613281 7.23046875 C72.0459884 23.00423721 118.24294534 43.83761496 160 73 C160.67144043 73.46325684 161.34288086 73.92651367 162.03466797 74.40380859 C171.97329399 81.26216061 181.60424857 88.41649412 191 96 C191.97710938 96.78246094 192.95421875 97.56492187 193.9609375 98.37109375 C199.25743481 102.65131637 204.39190364 107.06930596 209.41796875 111.6640625 C211.53601829 113.58024045 213.6740117 115.46469165 215.828125 117.33984375 C227.6576505 127.6732375 238.75121154 138.61195797 249.3515625 150.19873047 C250.84227377 151.82765046 252.34116721 153.44844657 253.84375 155.06640625 C259.4821301 161.18335256 264.8111485 167.49872542 270 174 C270.6199585 174.77053711 270.6199585 174.77053711 271.25244141 175.55664062 C295.99668336 206.34037601 316.29741339 239.74052708 334 275 C334.6494458 276.28487305 334.6494458 276.28487305 335.31201172 277.59570312 C348.63610681 304.12301492 358.74274339 332.47156456 366.23217773 361.16381836 C367.09842904 364.36357717 368.04364426 367.53621587 368.984375 370.71484375 C371.11383108 378.1324239 372.64437563 385.60582469 374.0625 393.1875 C374.32323595 394.56479523 374.58406065 395.94207367 374.8449707 397.31933594 C377.59926789 411.94136126 379.90395439 426.53089685 381.625 441.3125 C381.81002075 442.8579248 381.81002075 442.8579248 381.9987793 444.43457031 C384.00024342 462.46852385 384.23659901 480.68351642 384.25 498.8125 C384.25100708 499.77912567 384.25201416 500.74575134 384.25305176 501.7416687 C384.2405735 519.65329316 383.20885988 537.22638332 381 555 C380.85014648 556.20849609 380.70029297 557.41699219 380.54589844 558.66210938 C379.50735489 566.79846967 378.30680337 574.9026506 377 583 C376.71769531 584.75352783 376.71769531 584.75352783 376.4296875 586.54248047 C370.03748661 625.58284742 358.11272905 662.50981028 343 699 C342.66129883 699.81855469 342.32259766 700.63710938 341.97363281 701.48046875 C328.00085003 734.94506451 309.29404024 766.71558574 288 796 C287.56848633 796.59345215 287.13697266 797.1869043 286.69238281 797.79833984 C284.17716672 801.23732244 281.60281653 804.6270096 279 808 C278.59249512 808.53222168 278.18499023 809.06444336 277.76513672 809.61279297 C272.54547138 816.42011468 267.17256477 823.07237534 261.5625 829.5625 C261.08586914 830.11462158 260.60923828 830.66674316 260.11816406 831.2355957 C250.84458639 841.85764279 241.13240765 852.05430894 231.16333008 862.02197266 C229.42955057 863.75795956 227.70398462 865.5018511 225.97851562 867.24609375 C220.0299091 873.22386529 214.01692011 878.8582313 207.38549805 884.08203125 C204.94666486 886.04288208 202.65931112 888.11222179 200.375 890.25 C193.31263351 896.66628249 185.64644035 902.3068251 178 908 C177.28279785 908.5367334 176.5655957 909.0734668 175.82666016 909.62646484 C156.52524866 924.02036649 136.1151534 936.46105657 115 948 C113.70376709 948.7130127 113.70376709 948.7130127 112.38134766 949.44042969 C90.13354595 961.61898116 66.93899872 971.40999797 43.06103516 979.90673828 C40.25644446 980.90840977 37.46127762 981.93222361 34.66796875 982.96484375 C23.21963991 987.15142404 11.63263847 990.40323698 -0.20214844 993.30908203 C-2.82975653 993.95795907 -5.45019899 994.63019901 -8.0703125 995.30859375 C-28.798037 1000.57952654 -49.98495463 1003.622653 -71.1875 1006.25 C-72.48526367 1006.41314697 -73.78302734 1006.57629395 -75.12011719 1006.74438477 C-92.13305593 1008.76609688 -109.1319137 1009.18180891 -126.25 1009.125 C-127.59627975 1009.12167664 -127.59627975 1009.12167664 -128.96975708 1009.11828613 C-154.27409715 1009.04530715 -178.91952672 1007.28379984 -204 1004 C-204.94327148 1003.87898926 -205.88654297 1003.75797852 -206.85839844 1003.63330078 C-230.15357993 1000.57657357 -253.61625946 995.07239962 -276 988 C-277.09924805 987.65630371 -278.19849609 987.31260742 -279.33105469 986.95849609 C-307.18702139 978.1783861 -333.87833044 967.09626601 -360 954 C-360.9065332 953.54802246 -361.81306641 953.09604492 -362.74707031 952.63037109 C-399.68739445 934.10610383 -435.15808937 910.24608928 -465.59375 882.1953125 C-467.63206484 880.3356811 -469.69545346 878.51729337 -471.77734375 876.70703125 C-484.5949244 865.51438232 -496.53820936 853.56700952 -508 841 C-509.29550781 839.59427734 -509.29550781 839.59427734 -510.6171875 838.16015625 C-515.97720941 832.29009765 -521.0158327 826.19027189 -526 820 C-526.93702553 818.85508027 -527.87454838 817.71056742 -528.8125 816.56640625 C-536.32951759 807.34732906 -543.26807478 797.80391213 -550 788 C-550.41427246 787.40316406 -550.82854492 786.80632813 -551.25537109 786.19140625 C-565.60227394 765.4896176 -577.74479825 743.50332699 -589 721 C-589.45713379 720.09894531 -589.91426758 719.19789063 -590.38525391 718.26953125 C-609.9326672 679.63325162 -623.14011346 637.47049136 -631.39501953 595.08691406 C-631.88997643 592.56139547 -632.40334039 590.0416936 -632.93359375 587.5234375 C-635.4511606 575.13126907 -636.76014024 562.57445163 -638 550 C-638.10731445 548.93281738 -638.21462891 547.86563477 -638.32519531 546.76611328 C-643.46173837 493.33791229 -640.38698493 438.44881748 -629 386 C-628.82001465 385.17000488 -628.6400293 384.34000977 -628.45458984 383.48486328 C-613.55317321 315.92237839 -583.70348663 251.82063522 -543 196 C-542.24460937 194.95972656 -541.48921875 193.91945312 -540.7109375 192.84765625 C-524.0399892 170.26609901 -505.3449946 149.31765149 -485.5625 129.4375 C-484.92473633 128.79506348 -484.28697266 128.15262695 -483.62988281 127.49072266 C-479.81465441 123.68840367 -475.87805159 120.08114553 -471.80151367 116.56079102 C-469.61730145 114.66843856 -467.49784115 112.71073328 -465.375 110.75 C-459.74274429 105.66891304 -453.79750064 101.04057957 -447.80126953 96.40283203 C-446.05287896 95.04118223 -444.31916696 93.66309942 -442.58984375 92.27734375 C-390.67415913 50.7522767 -328.79936687 19.55858004 -264.5234375 2.67724609 C-261.32508964 1.81886597 -258.16544835 0.84691557 -255 -0.125 C-174.41155125 -23.08049752 -80.75142082 -21.77566404 0 0 Z M-200.75 29.375 C-201.49037506 29.48426819 -202.23075012 29.59353638 -202.99356079 29.70611572 C-279.2974526 40.97106691 -355.61534242 73.7411025 -416 122 C-416.89460937 122.71285156 -417.78921875 123.42570312 -418.7109375 124.16015625 C-435.22837153 137.50488668 -450.83866095 151.76824403 -465.875 166.75 C-466.76719238 167.63751953 -467.65938477 168.52503906 -468.57861328 169.43945312 C-473.59361829 174.46669674 -478.39046121 179.60045718 -483 185 C-484.03356188 186.17978409 -485.06869283 187.35819561 -486.10546875 188.53515625 C-508.70489371 214.34338773 -527.30935967 242.04609554 -544 272 C-544.5561499 272.98830811 -544.5561499 272.98830811 -545.12353516 273.99658203 C-573.0450699 323.76394693 -590.11275531 379.29572964 -597.1875 435.6875 C-597.43802124 437.64369263 -597.43802124 437.64369263 -597.69360352 439.6394043 C-600.08648302 459.48811199 -600.26706009 479.4664872 -600.3125 499.4375 C-600.31578308 500.63034607 -600.31906616 501.82319214 -600.32244873 503.05218506 C-600.34424019 527.69585366 -598.3109484 551.65774796 -594.47363281 575.98828125 C-594.02229603 578.85822482 -593.59700792 581.73097738 -593.17578125 584.60546875 C-582.29995809 656.38334857 -546.81188693 729.48084802 -502 786 C-501.54786133 786.57282715 -501.09572266 787.1456543 -500.62988281 787.73583984 C-498.14321741 790.87338427 -495.59115319 793.94839799 -493 797 C-492.3198584 797.8053418 -492.3198584 797.8053418 -491.62597656 798.62695312 C-477.22191247 815.64051738 -462.03374568 832.83414689 -445 847.27734375 C-442.56610869 849.37372279 -440.22865575 851.5639738 -437.875 853.75 C-432.59642305 858.5679809 -427.06116347 862.96960783 -421.41015625 867.33984375 C-418.36129256 869.70116017 -415.39490412 872.14973454 -412.4375 874.625 C-406.54442685 879.46298145 -400.33940214 883.77771895 -394 888 C-393.06075684 888.63010986 -393.06075684 888.63010986 -392.10253906 889.27294922 C-316.14492243 940.05571869 -227.24461407 969.17002681 -132.68066406 969.13037109 C-129.63601679 969.12501936 -126.59151778 969.13034715 -123.546875 969.13671875 C-105.98964992 969.14453807 -88.67758334 968.44838639 -71.25 966.25 C-70.55877045 966.16385437 -69.86754089 966.07770874 -69.15536499 965.98895264 C-46.12068223 963.10810424 -23.20038347 960.00438033 -1 953 C0.21349121 952.62101563 1.42698242 952.24203125 2.67724609 951.8515625 C31.45412525 942.81272823 59.01704466 931.52691162 86 918 C87.45696289 917.27345215 87.45696289 917.27345215 88.94335938 916.53222656 C119.38572154 901.27026536 147.08388195 882.72754602 172.91796875 860.609375 C175.72614663 858.21310985 178.60748186 855.91892177 181.5 853.625 C186.45073573 849.6065926 190.90386961 845.21342627 195.36181641 840.66772461 C198.26995544 837.70676588 201.20197184 834.86953734 204.375 832.1875 C207.62634383 829.42385775 210.34075215 826.40979291 213.09375 823.15625 C215.25141094 820.71561713 217.5430268 818.46189361 219.875 816.1875 C224.21101191 811.90404581 228.06703696 807.38902513 231.8671875 802.62890625 C233.75920789 800.29680053 235.71646169 798.08296314 237.75 795.875 C243.95979387 788.96011001 249.44453562 781.44140747 255 774 C255.44633789 773.40558105 255.89267578 772.81116211 256.35253906 772.19873047 C272.37508272 750.75808663 285.37682056 727.04072668 297.03027344 702.99267578 C298.04158322 700.9145513 299.07157033 698.8462641 300.1015625 696.77734375 C311.59834195 673.40944726 320.18050851 648.79947231 328 624 C328.30276855 623.06124023 328.60553711 622.12248047 328.91748047 621.15527344 C336.19732483 598.30762991 338.88529522 573.915742 341.8125 550.1875 C341.92424561 549.28475342 342.03599121 548.38200684 342.15112305 547.4519043 C343.86437496 532.56042257 344.16332825 517.6739074 344.13037109 502.69995117 C344.12503835 499.83311599 344.13033875 496.96643968 344.13671875 494.09960938 C344.14548617 475.4687323 343.5456783 456.93634759 341.25 438.4375 C341.16352203 437.72553467 341.07704407 437.01356934 340.98794556 436.2800293 C332.4072977 365.97401326 306.78200066 299.79497447 269 240 C268.40493652 239.05543945 268.40493652 239.05543945 267.79785156 238.09179688 C254.02566652 216.39252317 237.06370654 194.39991652 218.54296875 176.5390625 C216.92856426 174.92874511 215.47124022 173.24177054 214 171.5 C206.36488743 162.6529648 197.86970902 154.20004045 188.94140625 146.66015625 C186.46555003 144.54297538 184.08338732 142.33218171 181.6875 140.125 C176.28301614 135.20780567 170.7205113 130.54300218 165 126 C164.34080566 125.4735791 163.68161133 124.9471582 163.00244141 124.40478516 C152.97574416 116.41726323 142.823751 108.86882076 132 102 C131.23913086 101.51208984 130.47826172 101.02417969 129.69433594 100.52148438 C89.8989438 75.06891577 47.47555461 56.69605621 2.6628418 42.18969727 C-0.30988112 41.22415179 -3.27608174 40.24327285 -6.23828125 39.24609375 C-16.58129993 35.81990168 -27.07123046 34.06808532 -37.81079102 32.35766602 C-38.82326904 32.19580811 -39.83574707 32.0339502 -40.87890625 31.8671875 C-41.7922876 31.72394043 -42.70566895 31.58069336 -43.64672852 31.43310547 C-46 31 -46 31 -49 30 C-74.3900272 25.68024075 -100.39038325 24.6483713 -126.09204102 24.73925781 C-129.69759799 24.75003017 -133.30266046 24.73924519 -136.90820312 24.7265625 C-158.36284924 24.71217184 -179.5354895 26.18383618 -200.75 29.375 Z " fill="#FDDD2A" transform="translate(668,43)"/>
<path d="M0 0 C26.47741506 -0.18056966 52.95433183 -0.327945 79.43220615 -0.41449738 C91.72626852 -0.45575284 104.01992126 -0.512001 116.3137207 -0.60351562 C127.02870246 -0.68323958 137.74338758 -0.7348626 148.45865768 -0.75270796 C154.13278577 -0.76314004 159.8060652 -0.78766497 165.47992134 -0.84584045 C170.82104741 -0.90016045 176.1609757 -0.91688887 181.50235176 -0.90486145 C183.46195995 -0.90706154 185.42160836 -0.92296552 187.38097763 -0.9536438 C202.22703335 -1.174681 202.22703335 -1.174681 206.58425808 1.71220303 C208.3262463 3.72018445 209.64907341 5.71842303 211 8 C213.4220796 10.09308127 213.4220796 10.09308127 215.83374023 11.69360352 C233.31101673 24.17228673 253.25431068 39.27689351 257.40771484 61.57666016 C258.94891784 71.23613092 259.22686652 80.9359938 259.14336014 90.70118332 C259.12507858 93.36355599 259.1477396 96.02332719 259.17526245 98.68557739 C259.28036203 125.47537658 259.28036203 125.47537658 252.76428223 133.88562012 C247.64940681 138.46315247 242.01547801 141.31510756 235.68145752 143.85028076 C231.62518973 145.58947263 228.11795935 148.00036534 224.5 150.5 C223.13797583 151.38934837 221.7736665 152.27521512 220.40625 153.15625 C219.705 153.61 219.00375 154.06375 218.28125 154.53125 C212.92333277 157.98086794 207.53825402 161.38809855 202.15893555 164.80419922 C196.52577351 168.38434522 190.90970894 171.98893434 185.3125 175.625 C178.6037194 179.98251273 171.84839007 184.26241706 165.07861328 188.52441406 C159.92509391 191.7729849 154.79670057 195.05721859 149.6875 198.375 C142.82124876 202.8261281 135.94962038 207.26871553 129.0625 211.6875 C128.09594482 212.31253418 127.12938965 212.93756836 126.13354492 213.58154297 C125.23482666 214.15662598 124.3361084 214.73170898 123.41015625 215.32421875 C122.60715088 215.84072998 121.80414551 216.35724121 120.97680664 216.8894043 C119 218 119 218 117 218 C117 218.66 117 219.32 117 220 C162.87 220 208.74 220 256 220 C256 239.8 256 259.6 256 280 C171.52 280 87.04 280 0 280 C0 261.19 0 242.38 0 223 C6.1417645 218.70076485 12.21455795 214.51446037 18.5625 210.5625 C20.22052117 209.52288316 21.87804682 208.48247576 23.53515625 207.44140625 C24.41316895 206.88984863 25.29118164 206.33829102 26.19580078 205.77001953 C31.31388582 202.53946785 36.40548481 199.26754337 41.5 196 C48.8181757 191.3089749 56.14452946 186.63234086 63.5 182 C73.94508344 175.41988939 84.33671396 168.75676042 94.72998047 162.09521484 C99.13446757 159.27310731 103.54101829 156.45423033 107.94750977 153.63525391 C115.36578126 148.88948305 122.78373518 144.1433771 130.1875 139.375 C137.83457332 134.45435575 145.50951369 129.57760064 153.18359375 124.69921875 C157.07383074 122.22611611 160.96171573 119.74937915 164.84765625 117.26953125 C165.80542969 116.65875732 166.76320313 116.0479834 167.75 115.41870117 C169.55128457 114.26991317 171.35210917 113.12040342 173.15234375 111.9699707 C180.05741767 107.56865003 187.02326638 103.29337454 194 99 C194.33 86.13 194.66 73.26 195 60 C130.65 60 66.3 60 0 60 C0 40.2 0 20.4 0 0 Z " fill="#FCDC2A" transform="translate(412,400)"/>
<path d="M0 0 C1.71199519 0.02428825 3.42408158 0.04277364 5.13619995 0.05574036 C9.61360141 0.1050639 14.08540054 0.23244014 18.56060791 0.37689209 C23.13859254 0.51058932 27.71749526 0.56939991 32.296875 0.63476562 C41.26025633 0.77362495 50.21950379 0.99507578 59.1796875 1.26953125 C57.51921737 4.74576727 55.53371455 7.43179161 53.0546875 10.39453125 C50.06465988 13.99593832 47.09381991 17.60638488 44.1796875 21.26953125 C40.72454125 25.60034324 37.22441895 29.89222168 33.7109375 34.17578125 C31.34186929 37.07130907 28.9825023 39.97439859 26.62597656 42.88012695 C19.78012871 51.32081593 12.88431314 59.71923525 5.96777344 68.10205078 C-8.00616915 85.02595233 -8.00616915 85.02595233 -21.87109375 102.0390625 C-27.00198785 108.37776403 -32.14683034 114.69482978 -37.4453125 120.89453125 C-41.66733708 125.83675663 -45.70195576 130.9019403 -49.69140625 136.03295898 C-53.72516073 141.19941127 -57.94118972 146.19445877 -62.1953125 151.1796875 C-66.14637146 155.813806 -69.97743578 160.54570626 -73.8203125 165.26953125 C-75.23656161 166.99903992 -76.65323723 168.72819942 -78.0703125 170.45703125 C-81.83092993 175.05261094 -85.5770678 179.65980471 -89.3203125 184.26953125 C-90.98391153 186.31733219 -92.64764847 188.36502091 -94.31152344 190.41259766 C-95.62991039 192.03519493 -96.94780895 193.65818902 -98.265625 195.28125 C-101.37927851 199.10356659 -104.50473006 202.91112237 -107.7109375 206.65625 C-108.2064209 207.23608643 -108.7019043 207.81592285 -109.21240234 208.41333008 C-110.17285237 209.53459302 -111.13652299 210.65310854 -112.10400391 211.76831055 C-114.74619235 214.85118623 -116.70270614 217.74018732 -118.8203125 221.26953125 C-61.4003125 221.26953125 -3.9803125 221.26953125 55.1796875 221.26953125 C55.1796875 241.06953125 55.1796875 260.86953125 55.1796875 281.26953125 C28.77134294 281.51801414 2.36394744 281.72056988 -24.04526997 281.83946514 C-36.30803138 281.89614207 -48.57001395 281.97338654 -60.83227539 282.09936523 C-71.52239437 282.2091397 -82.21194924 282.28000326 -92.9026162 282.30450469 C-98.56155925 282.31882358 -104.21888873 282.35237705 -109.87731361 282.43256187 C-115.2088848 282.50749932 -120.53818571 282.53020599 -125.87023354 282.51371574 C-127.82177086 282.5167301 -129.77338784 282.53845585 -131.72446823 282.58079147 C-147.98394825 282.91614954 -147.98394825 282.91614954 -153.92361611 277.45014936 C-156.06704589 275.18162227 -157.95725511 272.77099678 -159.8203125 270.26953125 C-161.03222702 268.87391393 -162.2519961 267.48498621 -163.48657227 266.109375 C-164.02959991 265.47499512 -164.57262756 264.84061523 -165.1321106 264.18701172 C-168.31074411 260.57668072 -171.74809681 257.21994848 -175.16015625 253.83203125 C-175.92711319 253.06648926 -176.69407013 252.30094727 -177.48426819 251.51220703 C-179.90642131 249.09559928 -182.33204862 246.68251399 -184.7578125 244.26953125 C-186.41234143 242.62002439 -188.06664052 240.97028696 -189.72070312 239.3203125 C-193.75125452 235.30071754 -197.78465522 231.28399956 -201.8203125 227.26953125 C-199.48743665 223.27229639 -196.85555857 219.81220402 -193.8203125 216.33203125 C-189.79552132 211.65477182 -185.91299417 206.89643639 -182.1328125 202.01953125 C-178.48364416 197.32041776 -174.71182878 192.80982967 -170.7109375 188.40234375 C-167.97622949 185.31732191 -165.43398097 182.09046186 -162.875 178.859375 C-157.46197437 172.03649288 -151.89851765 165.34201375 -146.2578125 158.70703125 C-142.43543974 154.20842778 -138.69327155 149.65974387 -135.0234375 145.03515625 C-127.14581139 135.14622135 -119.10692052 125.38578083 -111.05883789 115.63549805 C-107.05764736 110.78417261 -103.08862639 105.90789218 -99.1328125 101.01953125 C-94.69987036 95.54374064 -90.19502154 90.1376554 -85.62768555 84.77368164 C-82.35512222 80.92286769 -79.17691027 77.00849183 -76.03515625 73.05078125 C-69.2109415 64.48139695 -62.31167415 55.97328153 -55.1953125 47.64453125 C-50.97233423 42.70105931 -46.93525678 37.63571997 -42.94702148 32.50170898 C-38.61798424 26.95318125 -34.09522537 21.58068074 -29.42036438 16.31948853 C-27.66493004 14.16265127 -27.66493004 14.16265127 -25.96672058 11.11679077 C-19.11515811 -0.07048926 -12.46339763 -0.52264905 0 0 Z " fill="#FCDC2A" transform="translate(322.8203125,398.73046875)"/>
<path d="M0 0 C67.32 0 134.64 0 204 0 C204 0.66 204 1.32 204 2 C204.556875 2.226875 205.11375 2.45375 205.6875 2.6875 C208.66159588 4.37550036 210.72008865 6.46676517 213 9 C213 9.66 213 10.32 213 11 C213.99 11.33 214.98 11.66 216 12 C217.53871155 13.55871582 217.53871155 13.55871582 219.17993164 15.54882812 C222.95521251 19.99552688 226.9831143 24.11095415 231.12109375 28.21875 C231.86585464 28.96209595 232.61061554 29.70544189 233.37794495 30.47131348 C235.72876745 32.81659301 238.08306431 35.15834836 240.4375 37.5 C242.04385199 39.10132961 243.64997397 40.70288998 245.25585938 42.3046875 C249.16791985 46.20579473 253.08282952 50.1040242 257 54 C256.06565813 55.2527929 255.13031991 56.50484273 254.19458008 57.7565918 C253.67382401 58.45390915 253.15306793 59.1512265 252.61653137 59.86967468 C250.05254858 63.24858681 247.37387071 66.53064235 244.6875 69.8125 C244.12063477 70.50754639 243.55376953 71.20259277 242.96972656 71.91870117 C241.31474453 73.94710904 239.65766901 75.9737878 238 78 C237.16597656 79.0209375 236.33195313 80.041875 235.47265625 81.09375 C233.31691257 83.73065264 231.1585324 86.36538008 229 89 C228.32066406 89.83144531 227.64132812 90.66289062 226.94140625 91.51953125 C224.63001548 94.34833426 222.31601352 97.1749817 220 100 C219.47744629 100.63744141 218.95489258 101.27488281 218.41650391 101.93164062 C212.34764115 109.33007143 206.26816882 116.71569839 200.0625 124 C196.61997834 128.04363562 193.29482055 132.15080063 190.06640625 136.3671875 C185.37127156 142.34926837 180.47083173 148.16934815 175.62597656 154.03027344 C173.57597652 156.51366688 171.5366624 159.00566065 169.5 161.5 C165.67879546 166.1766981 161.84062334 170.83925148 158 175.5 C152.65312663 181.9890275 147.31883842 188.48796209 142 195 C139.00309883 198.6692098 136.00360389 202.33627529 133 206 C132.47744629 206.63744141 131.95489258 207.27488281 131.41650391 207.93164062 C125.36638822 215.30721725 119.30690918 222.67179213 113.125 229.9375 C109.41062577 234.30520612 105.77966015 238.72810194 102.21484375 243.21875 C99.39078446 246.7650114 96.54265781 250.2912493 93.6875 253.8125 C93.13416992 254.49521973 92.58083984 255.17793945 92.01074219 255.88134766 C87.92400984 260.90596011 83.76588752 265.86502833 79.5144043 270.7512207 C77.58867751 272.99032617 76.03275127 274.92661034 74.82292175 277.63761902 C73 280 73 280 69.71601868 280.60127258 C68.34106459 280.61576691 66.96565345 280.60246818 65.59106445 280.56762695 C64.83960144 280.56835709 64.08813843 280.56908722 63.31390381 280.56983948 C60.82962899 280.56635547 58.34722849 280.52745953 55.86328125 280.48828125 C54.14122034 280.47895593 52.41914617 280.47183849 50.69706726 280.46684265 C46.16424951 280.44775051 41.6322327 280.39863119 37.09973145 280.34332275 C32.47480098 280.2921777 27.84974111 280.26933879 23.22460938 280.24414062 C14.14938765 280.19051414 5.07476042 280.10517493 -4 280 C-2.60487073 276.32556839 -1.28013812 273.91573753 1.4375 271.0625 C4.93177393 267.25916574 8.15399944 263.33003297 11.3125 259.25 C15.4247735 253.95390102 19.65815812 248.78906361 24.01049805 243.68896484 C28.41879134 238.52268804 32.71453289 233.26851333 37 228 C38.49943092 226.16620121 39.99943458 224.33287057 41.5 222.5 C42.2425 221.5925 42.985 220.685 43.75 219.75 C49 213.33333333 54.25 206.91666667 59.5 200.5 C60.24765625 199.58605469 60.9953125 198.67210937 61.765625 197.73046875 C63.21297051 195.96177205 64.66085301 194.19351457 66.109375 192.42578125 C69.43930918 188.36058788 72.76552831 184.29270561 76.0703125 180.20703125 C81.70307955 173.24702717 87.37633509 166.33267186 93.18261719 159.51660156 C96.55394023 155.55077629 99.82398668 151.51506528 103.05859375 147.4375 C105.8274329 143.96113052 108.65030517 140.52993616 111.46875 137.09375 C113.83781821 134.19822218 116.1971852 131.29513266 118.55371094 128.3894043 C125.40676767 119.93982702 132.31000766 111.53270946 139.23388672 103.14111328 C142.7357206 98.89573269 146.23358109 94.64707396 149.72998047 90.3972168 C152.75183964 86.72514334 155.77953941 83.05811287 158.81640625 79.3984375 C159.44353516 78.64111328 160.07066406 77.88378906 160.71679688 77.10351562 C161.90759679 75.66573498 163.10017593 74.22942518 164.29492188 72.79492188 C164.83826172 72.13814453 165.38160156 71.48136719 165.94140625 70.8046875 C166.41263916 70.23733887 166.88387207 69.66999023 167.36938477 69.08544922 C169.67876928 66.13189891 171.82080505 63.05087292 174 60 C116.58 60 59.16 60 0 60 C0 40.2 0 20.4 0 0 Z " fill="#FDDD2A" transform="translate(702,400)"/>
<path d="M0 0 C-21.77646969 14.34195149 -21.77646969 14.34195149 -32.1875 20.625 C-39.3097643 24.92547583 -46.29999573 29.40246612 -53.26293945 33.95581055 C-59.43975748 37.99319857 -65.64622642 41.98075361 -71.875 45.9375 C-72.7920874 46.52007568 -73.7091748 47.10265137 -74.65405273 47.70288086 C-76.51284725 48.88308594 -78.37181549 50.06301744 -80.23095703 51.24267578 C-93.00175544 59.34743746 -105.75723769 67.47623872 -118.5 75.625 C-119.55678955 76.30030762 -120.6135791 76.97561523 -121.70239258 77.67138672 C-122.69779053 78.30834473 -123.69318848 78.94530273 -124.71875 79.6015625 C-125.59466797 80.16182129 -126.47058594 80.72208008 -127.37304688 81.29931641 C-128.23994141 81.86054199 -129.10683594 82.42176758 -130 83 C-131.0823291 83.46486816 -132.1646582 83.92973633 -133.27978516 84.40869141 C-136.50867132 87.48456628 -136.47172934 88.37101641 -136.77294922 92.68652344 C-136.81395145 95.07714577 -136.8224199 97.46846683 -136.8046875 99.859375 C-136.81839386 101.11888977 -136.83210022 102.37840454 -136.84622192 103.67608643 C-136.87727351 107.01727806 -136.88263678 110.35650394 -136.87554932 113.69769287 C-136.87463603 117.10982615 -136.90749991 120.52161701 -136.9375 123.93359375 C-136.98945149 130.62251668 -137.00754633 137.31089394 -137 144 C-136.01 144.33 -135.02 144.66 -134 145 C-134.4947583 146.16172729 -134.4947583 146.16172729 -134.99951172 147.34692383 C-145.43173278 171.85676652 -155.73704295 196.41885502 -166 221 C-166.3340686 221.80004456 -166.66813721 222.60008911 -167.0123291 223.42437744 C-173.13473084 238.08777059 -179.24497685 252.75615513 -185.32421875 267.4375 C-198.51800853 299.29973694 -198.51800853 299.29973694 -204.3125 313 C-204.73821289 314.00691895 -205.16392578 315.01383789 -205.60253906 316.05126953 C-207.74937688 321.11042319 -209.94616852 326.13605702 -212.26538086 331.11889648 C-213.18831434 333.48220738 -213.32380943 335.49047694 -213 338 C-213.99 338.33 -214.98 338.66 -216 339 C-228.0196763 307.89730317 -239.85649576 276.72590684 -251.65991211 245.54058838 C-252.96643862 242.08867108 -254.27324406 238.63685947 -255.58007812 235.18505859 C-257.56369528 229.94506434 -259.54628592 224.70468293 -261.52789307 219.46392822 C-262.2488613 217.557243 -262.97000666 215.65062474 -263.69134521 213.74407959 C-267.18224632 204.5156906 -270.67193619 195.28875542 -274 186 C-266.7499567 179.74485315 -259.48543156 173.52020962 -252.05078125 167.484375 C-249.64438501 165.52474887 -247.24723121 163.5555026 -244.85546875 161.578125 C-243.74715698 160.66232666 -243.74715698 160.66232666 -242.61645508 159.72802734 C-241.16892624 158.53134464 -239.72209808 157.33381364 -238.27612305 156.13525391 C-236.9338402 155.02670822 -235.58420914 153.92697976 -234.22622681 152.83772278 C-232.79552903 151.65669941 -231.39913517 150.43212745 -230.05082703 149.15785217 C-223.80424089 143.57814811 -218.93483768 143.04405063 -210.74609375 143.31640625 C-209.73293091 143.32345581 -208.71976807 143.33050537 -207.67590332 143.33776855 C-203.92919615 143.37410349 -200.1832862 143.47183269 -196.4375 143.5625 C-183.8459375 143.7790625 -183.8459375 143.7790625 -171 144 C-171 124.53 -171 105.06 -171 85 C-170.67 85 -170.34 85 -170 85 C-169.505 91.93 -169.505 91.93 -169 99 C-167.411875 97.700625 -165.82375 96.40125 -164.1875 95.0625 C-160.29166667 91.875 -156.39583333 88.6875 -152.5 85.5 C-151.58476562 84.75105469 -150.66953125 84.00210938 -149.7265625 83.23046875 C-147.97182216 81.79500065 -146.21664845 80.36006204 -144.4609375 78.92578125 C-138.05001724 73.68664551 -131.65667765 68.42646278 -125.26806641 63.16015625 C-121.27110491 59.86633915 -117.26613121 56.58294603 -113.25 53.3125 C-110.38415702 50.97446067 -107.53890642 48.6161146 -104.72265625 46.21875 C-103.8723584 45.49498169 -103.8723584 45.49498169 -103.00488281 44.7565918 C-101.92282732 43.83328564 -100.8425672 42.90786859 -99.76464844 41.97973633 C-98.19072921 40.63515818 -96.59652363 39.31762285 -95 38 C-94.44272217 37.5138623 -93.88544434 37.02772461 -93.3112793 36.52685547 C-87.81165611 32.00444107 -81.79177679 29.65453803 -75.14779663 27.21884155 C-72.43018157 26.22229103 -69.72370998 25.19693846 -67.01631165 24.17301941 C-65.57776639 23.62903274 -64.13870099 23.08641977 -62.69914246 22.54512024 C-55.07258573 19.67087831 -47.51012469 16.64119551 -39.94985962 13.59768677 C-37.70409105 12.69417487 -35.45713755 11.79368071 -33.2097168 10.89428711 C-27.09984508 8.44901534 -20.99247038 5.99835503 -14.89453125 3.5234375 C-13.26318381 2.86938502 -11.63169184 2.21569282 -10 1.5625 C-9.30092529 1.2739917 -8.60185059 0.9854834 -7.8815918 0.68823242 C-3.34143249 -1.11381083 -3.34143249 -1.11381083 0 0 Z " fill="#1E1E1E" transform="translate(549,536)"/>
<path d="M0 0 C10.83218051 20.84769401 12.18041378 50.3433943 14.8125 73.375 C14.92416504 74.33857422 15.03583008 75.30214844 15.15087891 76.29492188 C17.08922257 94.7571043 17.14276043 113.33332612 17.0625 131.875 C17.05746394 133.94270722 17.05290484 136.01041566 17.04882812 138.078125 C17.03801455 143.0521145 17.020872 148.02604296 17 153 C16.67 153 16.34 153 16 153 C16 145.08 16 137.16 16 129 C13.94628174 129.56098389 11.89256348 130.12196777 9.77661133 130.69995117 C0.09786258 133.30121777 -9.66121036 135.54818414 -19.42578125 137.80078125 C-21.35011832 138.24584152 -23.27444988 138.69092557 -25.19877625 139.1360321 C-29.19611889 140.05983169 -33.19397815 140.98135841 -37.19213867 141.90161133 C-42.32388001 143.08327715 -47.45352055 144.27381766 -52.58274555 145.46635151 C-56.53891665 146.38459102 -60.49649057 147.29666272 -64.45448875 148.2069912 C-66.3485172 148.64371091 -68.24201693 149.08273017 -70.13497353 149.52407265 C-72.76341839 150.13625292 -75.39370841 150.73975544 -78.0246582 151.34106445 C-78.80741623 151.52539032 -79.59017426 151.70971619 -80.39665222 151.89962769 C-85.77172011 153.11413995 -85.77172011 153.11413995 -88 152 C-87.34515625 150.99324219 -86.6903125 149.98648438 -86.015625 148.94921875 C-80.96038179 141.16384419 -75.94478763 133.35605357 -71 125.5 C-66.80931415 118.84333433 -62.57021507 112.22124214 -58.28515625 105.625 C-53.87811201 98.83237626 -49.5377085 91.9979484 -45.19848633 85.16186523 C-42.04618378 80.20021969 -38.87572497 75.25195077 -35.66503906 70.32788086 C-33.86842587 67.56777709 -32.08807193 64.79736484 -30.30908203 62.02587891 C-29.44758853 60.69266871 -28.57893921 59.36405083 -27.70263672 58.04052734 C-20.82837215 47.64523503 -15.29485413 36.75867833 -10 25.5 C-9.67253784 24.8076828 -9.34507568 24.1153656 -9.00769043 23.40206909 C-5.41167384 15.76738135 -2.05297014 8.22165661 0 0 Z " fill="#1D1D1C" transform="translate(995,412)"/>
<path d="M0 0 C2.07189118 2.07189118 2.53236017 3.09009517 3.44189453 5.7956543 C3.84564552 6.98211044 3.84564552 6.98211044 4.2575531 8.1925354 C4.6908065 9.49521866 4.6908065 9.49521866 5.1328125 10.82421875 C5.44150772 11.73650238 5.75020294 12.64878601 6.06825256 13.5887146 C7.09259098 16.61984322 8.10868936 19.65367129 9.125 22.6875 C9.84222878 24.81393196 10.56009298 26.9401497 11.27856445 29.06616211 C12.77527587 33.49672391 14.26921821 37.92820518 15.76123047 42.36035156 C18.88141904 51.62258386 22.03358468 60.87389706 25.18658447 70.125 C26.19140382 73.07395698 27.19521028 76.02325694 28.19873047 78.97265625 C31.28068916 88.02925946 34.36809964 97.08392841 37.47265625 106.1328125 C42.91162034 121.98709324 48.31715825 137.85125669 53.625 153.75 C53.87761597 154.5052597 54.13023193 155.26051941 54.39050293 156.03866577 C57.04828336 163.99023453 59.67091068 171.94432011 62 180 C56.71566323 181.03087881 51.48895352 181.31611358 46.125 181.5625 C45.24585938 181.60568359 44.36671875 181.64886719 43.4609375 181.69335938 C41.30744203 181.79869339 39.15373936 181.89977649 37 182 C5.48329627 132.60849992 -23.13984363 74.57799509 -32 16 C-31.49251221 15.764021 -30.98502441 15.52804199 -30.4621582 15.28491211 C-20.1403474 10.47319708 -9.9458003 5.55322063 0 0 Z " fill="#232222" transform="translate(108,618)"/>
<path d="M0 0 C4.7749875 1.45381893 9.1476652 3.44193506 13.5859375 5.6953125 C14.28772125 6.04761932 14.989505 6.39992615 15.71255493 6.76290894 C17.93529034 7.87983696 20.15516549 9.00231954 22.375 10.125 C23.88913684 10.88708856 25.40345796 11.64881112 26.91796875 12.41015625 C30.61412431 14.26921035 34.3077265 16.13324843 38 18 C34.03948454 23.35501331 29.96526422 28.59353152 25.75 33.75 C24.90356934 34.78870239 24.90356934 34.78870239 24.04003906 35.84838867 C19.83852581 40.9957768 15.59516054 46.1066538 11.33203125 51.203125 C7.5206307 55.77425196 3.76225462 60.38841806 0 65 C-1.49971592 66.83356573 -2.99971683 68.66689838 -4.5 70.5 C-5.2425 71.4075 -5.985 72.315 -6.75 73.25 C-13.5 81.5 -13.5 81.5 -15.76953125 84.2734375 C-17.20499935 86.02817784 -18.63993796 87.78335155 -20.07421875 89.5390625 C-23.44938931 93.66912333 -26.82926224 97.79505881 -30.22265625 101.91015625 C-31.08370972 102.95502197 -31.08370972 102.95502197 -31.9621582 104.02099609 C-33.15537253 105.46693135 -34.35052868 106.91126634 -35.54760742 108.35400391 C-38.61794068 112.06355896 -41.63741038 115.79989581 -44.578125 119.61328125 C-45.15336914 120.34973877 -45.72861328 121.08619629 -46.32128906 121.8449707 C-47.41467992 123.24860088 -48.49550239 124.6621418 -49.56152344 126.08666992 C-53.26083394 130.8022679 -53.26083394 130.8022679 -56.7890625 131.74609375 C-57.84867188 131.82988281 -58.90828125 131.91367187 -60 132 C-63.16327092 132.90491581 -66.26391062 133.99321808 -69.375 135.0625 C-70.20644531 135.34416016 -71.03789062 135.62582031 -71.89453125 135.91601562 C-73.93108441 136.60657101 -75.96573881 137.30272179 -78 138 C-76.67250297 134.5050893 -75.13699967 131.28447631 -73.3046875 128.02734375 C-72.76199219 127.05990234 -72.21929687 126.09246094 -71.66015625 125.09570312 C-71.07105469 124.05349609 -70.48195312 123.01128906 -69.875 121.9375 C-69.25753906 120.83986328 -68.64007813 119.74222656 -68.00390625 118.61132812 C-63.03659988 109.79659908 -58.01735968 101.01167405 -52.98736572 92.23260498 C-47.60193673 82.83297827 -42.28514846 73.39657565 -37.00561523 63.93701172 C-32.92764928 56.63678415 -28.79187258 49.37187589 -24.6237793 42.12280273 C-21.73621544 37.08505824 -18.89658035 32.0228361 -16.09375 26.9375 C-15.7591124 26.33118744 -15.42447479 25.72487488 -15.07969666 25.10018921 C-13.43480813 22.11887054 -11.79485796 19.13510812 -10.16235352 16.14697266 C-7.0545623 10.50336094 -3.89812952 5.13340017 0 0 Z " fill="#232323" transform="translate(248,406)"/>
<path d="M0 0 C0.495 0.99 0.495 0.99 1 2 C2.99815927 2.67216367 4.9986427 3.33741913 7 4 C9.76082696 5.31983777 12.43865844 6.7855233 15.125 8.25 C16.62570856 9.05709416 18.12701521 9.86307716 19.62890625 10.66796875 C20.73322998 11.26037354 20.73322998 11.26037354 21.85986328 11.86474609 C26.52464554 14.33921991 31.26095706 16.6715685 36 19 C33.64032904 21.35967096 31.87794754 21.89647936 28.73095703 22.98364258 C27.62865753 23.3677681 26.52635803 23.75189362 25.39065552 24.1476593 C23.59239822 24.76486092 23.59239822 24.76486092 21.7578125 25.39453125 C19.87167626 26.05066331 17.98554142 26.70679943 16.0994854 27.36316204 C13.44722534 28.28463813 10.7931882 29.20093424 8.13909912 30.11712646 C3.53722013 31.70593847 -1.06331036 33.29860612 -5.66165161 34.89762878 C-8.1068613 35.74734564 -10.55330722 36.59351646 -13.00119019 37.4355011 C-19.68549171 39.75581491 -26.19478362 42.28606374 -32.6567688 45.17240906 C-33.81666824 45.58206657 -33.81666824 45.58206657 -35 46 C-35.66 45.67 -36.32 45.34 -37 45 C-36.29875 44.17757812 -35.5975 43.35515625 -34.875 42.5078125 C-29.93223528 36.69732771 -25.04679881 30.85830432 -20.30859375 24.87890625 C-16.56091241 20.20540177 -12.7380231 15.59384459 -8.92260742 10.97558594 C-5.91975744 7.33916853 -2.93203089 3.69406862 0 0 Z " fill="#232321" transform="translate(341,451)"/>
<path d="M0 0 C0.66 0.33 1.32 0.66 2 1 C1.34 1.66 0.68 2.32 0 3 C44.22 3.33 88.44 3.66 134 4 C134 4.33 134 4.66 134 5 C88.13 5 42.26 5 -5 5 C-5 4.34 -5 3.68 -5 3 C-2.625 1.3125 -2.625 1.3125 0 0 Z " fill="#333121" transform="translate(534,615)"/>
<path d="M0 0 C0.66 0.33 1.32 0.66 2 1 C1.02688873 1.81975311 1.02688873 1.81975311 0.03411865 2.65606689 C-2.44253525 5.50993732 -2.51170796 6.77616804 -2.54589844 10.50292969 C-2.56561707 11.60376892 -2.58533569 12.70460815 -2.60565186 13.83880615 C-2.60688049 15.02121887 -2.60810913 16.20363159 -2.609375 17.421875 C-2.62591125 18.63699768 -2.64244751 19.85212036 -2.65948486 21.10406494 C-2.70807963 24.98609413 -2.7293624 28.86773123 -2.75 32.75 C-2.7781499 35.38153026 -2.80807593 38.01304217 -2.83984375 40.64453125 C-2.91384196 47.09628272 -2.96541722 53.5479234 -3 60 C-3.33 60 -3.66 60 -4 60 C-4.0926611 52.62004786 -4.16374461 45.24022104 -4.20724869 37.85980511 C-4.22812821 34.43277637 -4.25645083 31.00614546 -4.30175781 27.5793457 C-4.35351325 23.64018508 -4.37294237 19.70118582 -4.390625 15.76171875 C-4.41127014 14.53039719 -4.43191528 13.29907562 -4.45318604 12.03044128 C-4.45348816 10.88948502 -4.45379028 9.74852875 -4.45410156 8.57299805 C-4.46298401 7.567061 -4.47186646 6.56112396 -4.48101807 5.52470398 C-4 3 -4 3 -1.97161865 1.15168762 C-1.3209845 0.77163071 -0.67035034 0.39157379 0 0 Z " fill="#E1C628" transform="translate(417,619)"/>
<path d="M0 0 C0.66 0.33 1.32 0.66 2 1 C1.34 1.66 0.68 2.32 0 3 C2.97 3.495 2.97 3.495 6 4 C6 4.33 6 4.66 6 5 C2.37 5 -1.26 5 -5 5 C-5 4.34 -5 3.68 -5 3 C-2.625 1.3125 -2.625 1.3125 0 0 Z " fill="#3C3820" transform="translate(534,615)"/>
<path d="M0 0 C0.66 0.66 1.32 1.32 2 2 C-0.31 4.31 -2.62 6.62 -5 9 C-5 4.61031544 -2.87194899 3.23094261 0 0 Z " fill="#393316" transform="translate(931,488)"/>
</svg>
